<?xml version="1.0" encoding="UTF-8"?>
<!DOCTYPE svg PUBLIC "-//W3C//DTD SVG 1.1//EN" "http://www.w3.org/Graphics/SVG/1.1/DTD/svg11.dtd">
<!-- Creator: CorelDRAW 2021 (64 Bit) -->
<svg xmlns="http://www.w3.org/2000/svg" xml:space="preserve" width="32.0812mm" height="32.0812mm" version="1.1" style="shape-rendering:geometricPrecision; text-rendering:geometricPrecision; image-rendering:optimizeQuality; fill-rule:evenodd; clip-rule:evenodd"
viewBox="0 0 1065.82 1065.82"
 xmlns:xlink="http://www.w3.org/1999/xlink"
 xmlns:xodm="http://www.corel.com/coreldraw/odm/2003">
 <defs>
  <style type="text/css">
   <![CDATA[
    .str0 {stroke:black;stroke-width:58.6;stroke-miterlimit:22.9256}
    .fil0 {fill:none}
   ]]>
  </style>
 </defs>
 <g id="Camada_x0020_1">
  <metadata id="CorelCorpID_0Corel-Layer"/>
  <rect class="fil0" width="1065.82" height="1065.82"/>
  <path class="fil0 str0" d="M730.19 668.21c26.41,-18.06 72.18,-59.41 94.7,-81.08 24.43,-23.49 50.94,-64.77 60.92,-107.62 48.74,-209.23 -166.03,-295.39 -310.15,-188.23 -17.58,13.07 -26.88,29.2 -42.62,44 -16.86,-15.77 -25.21,-31.62 -44.63,-45.47 -59.99,-42.78 -130.47,-59.55 -206.46,-30.77 -87.39,33.1 -127.17,115.1 -101.15,223.19 20.38,84.65 103.65,148.98 157.19,187.41l97.55 75.3c8.67,7.5 16.86,11.74 25.85,19.29l71.65 56.9 197.14 -152.91z"/>
 </g>
</svg>
